G75*
%MOIN*%
%OFA0B0*%
%FSLAX25Y25*%
%IPPOS*%
%LPD*%
%AMOC8*
5,1,8,0,0,1.08239X$1,22.5*
%
%ADD10R,0.07300X0.07300*%
%ADD11C,0.07300*%
%ADD12R,0.08200X0.08200*%
%ADD13C,0.08200*%
%ADD14C,0.09800*%
%ADD15R,0.06509X0.02375*%
%ADD16C,0.04146*%
%ADD17R,0.06693X0.07874*%
%ADD18R,0.06693X0.10630*%
%ADD19C,0.08600*%
%ADD20R,0.05556X0.05556*%
%ADD21C,0.05556*%
D10*
X0131346Y0106000D03*
X0056346Y0111000D03*
D11*
X0056346Y0101000D03*
X0131346Y0096000D03*
D12*
X0076346Y0031000D03*
X0086346Y0031000D03*
X0091346Y0096000D03*
X0221346Y0026000D03*
D13*
X0221346Y0036000D03*
X0221346Y0046000D03*
X0186346Y0076000D03*
X0171346Y0076000D03*
X0156346Y0076000D03*
X0206346Y0081000D03*
X0206346Y0091000D03*
X0206346Y0101000D03*
X0186346Y0106000D03*
X0171346Y0106000D03*
X0156346Y0106000D03*
X0091346Y0106000D03*
X0091346Y0116000D03*
X0086346Y0061000D03*
X0076346Y0061000D03*
X0076346Y0051000D03*
X0086346Y0051000D03*
X0086346Y0041000D03*
X0076346Y0041000D03*
X0336346Y0091000D03*
X0336346Y0101000D03*
X0336346Y0111000D03*
D14*
X0311346Y0116000D03*
X0292846Y0116000D03*
X0251346Y0116000D03*
X0251346Y0086000D03*
X0301346Y0086000D03*
D15*
X0032075Y0100882D03*
X0032075Y0103441D03*
X0032075Y0106000D03*
X0032075Y0108559D03*
X0032075Y0111118D03*
D16*
X0030008Y0113480D03*
X0030008Y0098520D03*
D17*
X0021346Y0091496D03*
X0021346Y0120504D03*
D18*
X0021346Y0106000D03*
D19*
X0231346Y0121000D03*
X0231346Y0081000D03*
D20*
X0136031Y0061118D03*
D21*
X0136031Y0050882D03*
X0196661Y0050882D03*
X0196661Y0061118D03*
M02*
