G75*
%MOIN*%
%OFA0B0*%
%FSLAX25Y25*%
%IPPOS*%
%LPD*%
%AMOC8*
5,1,8,0,0,1.08239X$1,22.5*
%
%ADD10R,0.06500X0.06500*%
%ADD11C,0.06500*%
%ADD12R,0.07400X0.07400*%
%ADD13C,0.07400*%
%ADD14C,0.09000*%
%ADD15C,0.07800*%
%ADD16R,0.04756X0.04756*%
%ADD17C,0.04756*%
%ADD18C,0.01600*%
D10*
X0131346Y0106000D03*
X0056346Y0111000D03*
D11*
X0056346Y0101000D03*
X0131346Y0096000D03*
D12*
X0076346Y0031000D03*
X0086346Y0031000D03*
X0091346Y0096000D03*
X0221346Y0026000D03*
D13*
X0221346Y0036000D03*
X0221346Y0046000D03*
X0186346Y0076000D03*
X0171346Y0076000D03*
X0156346Y0076000D03*
X0206346Y0081000D03*
X0206346Y0091000D03*
X0206346Y0101000D03*
X0186346Y0106000D03*
X0171346Y0106000D03*
X0156346Y0106000D03*
X0091346Y0106000D03*
X0091346Y0116000D03*
X0086346Y0061000D03*
X0076346Y0061000D03*
X0076346Y0051000D03*
X0086346Y0051000D03*
X0086346Y0041000D03*
X0076346Y0041000D03*
X0336346Y0091000D03*
X0336346Y0101000D03*
X0336346Y0111000D03*
D14*
X0311346Y0116000D03*
X0292846Y0116000D03*
X0251346Y0116000D03*
X0251346Y0086000D03*
X0301346Y0086000D03*
D15*
X0231346Y0081000D03*
X0231346Y0121000D03*
D16*
X0136031Y0061118D03*
D17*
X0136031Y0050882D03*
X0196661Y0050882D03*
X0196661Y0061118D03*
D18*
X0221346Y0056000D02*
X0171346Y0106000D01*
X0091346Y0106000D02*
X0071346Y0106000D01*
X0066346Y0101000D01*
X0066346Y0061000D01*
X0076346Y0051000D01*
X0221346Y0046000D02*
X0221346Y0056000D01*
M02*
