%
M48
M72
T01C0.02756
T02C0.03200
T03C0.03346
T04C0.03543
T05C0.03937
T06C0.04000
T07C0.05118
%
T01
X136031Y50882
X136031Y61118
X196661Y61118
X196661Y50882
X131346Y96000
X131346Y106000
X56346Y101000
X56346Y111000
T02
X206346Y101000
X206346Y91000
X206346Y81000
T03
X30008Y98520
X30008Y113480
T04
X156346Y106000
X171346Y106000
X186346Y106000
X186346Y76000
X171346Y76000
X156346Y76000
T05
X91346Y96000
X91346Y106000
X91346Y116000
X231346Y121000
X231346Y81000
T06
X76346Y31000
X86346Y31000
X86346Y41000
X76346Y41000
X76346Y51000
X86346Y51000
X86346Y61000
X76346Y61000
X221346Y46000
X221346Y36000
X221346Y26000
X336346Y91000
X336346Y101000
X336346Y111000
T07
X311346Y116000
X292846Y116000
X251346Y116000
X251346Y86000
X301346Y86000
M30
