G75*
%MOIN*%
%OFA0B0*%
%FSLAX25Y25*%
%IPPOS*%
%LPD*%
%AMOC8*
5,1,8,0,0,1.08239X$1,22.5*
%
%ADD10C,0.00000*%
%ADD11C,0.00800*%
%ADD12R,0.06500X0.06500*%
%ADD13C,0.06500*%
%ADD14R,0.07400X0.07400*%
%ADD15C,0.07400*%
%ADD16C,0.00500*%
%ADD17C,0.00080*%
%ADD18C,0.00600*%
%ADD19C,0.09000*%
%ADD20R,0.05709X0.01575*%
%ADD21C,0.01200*%
%ADD22R,0.05906X0.07087*%
%ADD23R,0.05906X0.09843*%
%ADD24C,0.01000*%
%ADD25C,0.07800*%
%ADD26R,0.04756X0.04756*%
%ADD27C,0.04756*%
%ADD28C,0.01600*%
D10*
X0016346Y0001000D02*
X0016346Y0165961D01*
X0345047Y0165961D01*
X0345047Y0001000D01*
X0016346Y0001000D01*
X0028335Y0098520D02*
X0028337Y0098601D01*
X0028343Y0098683D01*
X0028353Y0098764D01*
X0028367Y0098844D01*
X0028384Y0098923D01*
X0028406Y0099002D01*
X0028431Y0099079D01*
X0028460Y0099156D01*
X0028493Y0099230D01*
X0028530Y0099303D01*
X0028569Y0099374D01*
X0028613Y0099443D01*
X0028659Y0099510D01*
X0028709Y0099574D01*
X0028762Y0099636D01*
X0028818Y0099696D01*
X0028876Y0099752D01*
X0028938Y0099806D01*
X0029002Y0099857D01*
X0029068Y0099904D01*
X0029136Y0099948D01*
X0029207Y0099989D01*
X0029279Y0100026D01*
X0029354Y0100060D01*
X0029429Y0100090D01*
X0029507Y0100116D01*
X0029585Y0100139D01*
X0029664Y0100157D01*
X0029744Y0100172D01*
X0029825Y0100183D01*
X0029906Y0100190D01*
X0029988Y0100193D01*
X0030069Y0100192D01*
X0030150Y0100187D01*
X0030231Y0100178D01*
X0030312Y0100165D01*
X0030392Y0100148D01*
X0030470Y0100128D01*
X0030548Y0100103D01*
X0030625Y0100075D01*
X0030700Y0100043D01*
X0030773Y0100008D01*
X0030844Y0099969D01*
X0030914Y0099926D01*
X0030981Y0099881D01*
X0031047Y0099832D01*
X0031109Y0099780D01*
X0031169Y0099724D01*
X0031226Y0099666D01*
X0031281Y0099606D01*
X0031332Y0099542D01*
X0031380Y0099477D01*
X0031425Y0099409D01*
X0031467Y0099339D01*
X0031505Y0099267D01*
X0031540Y0099193D01*
X0031571Y0099118D01*
X0031598Y0099041D01*
X0031621Y0098963D01*
X0031641Y0098884D01*
X0031657Y0098804D01*
X0031669Y0098723D01*
X0031677Y0098642D01*
X0031681Y0098561D01*
X0031681Y0098479D01*
X0031677Y0098398D01*
X0031669Y0098317D01*
X0031657Y0098236D01*
X0031641Y0098156D01*
X0031621Y0098077D01*
X0031598Y0097999D01*
X0031571Y0097922D01*
X0031540Y0097847D01*
X0031505Y0097773D01*
X0031467Y0097701D01*
X0031425Y0097631D01*
X0031380Y0097563D01*
X0031332Y0097498D01*
X0031281Y0097434D01*
X0031226Y0097374D01*
X0031169Y0097316D01*
X0031109Y0097260D01*
X0031047Y0097208D01*
X0030981Y0097159D01*
X0030914Y0097114D01*
X0030845Y0097071D01*
X0030773Y0097032D01*
X0030700Y0096997D01*
X0030625Y0096965D01*
X0030548Y0096937D01*
X0030470Y0096912D01*
X0030392Y0096892D01*
X0030312Y0096875D01*
X0030231Y0096862D01*
X0030150Y0096853D01*
X0030069Y0096848D01*
X0029988Y0096847D01*
X0029906Y0096850D01*
X0029825Y0096857D01*
X0029744Y0096868D01*
X0029664Y0096883D01*
X0029585Y0096901D01*
X0029507Y0096924D01*
X0029429Y0096950D01*
X0029354Y0096980D01*
X0029279Y0097014D01*
X0029207Y0097051D01*
X0029136Y0097092D01*
X0029068Y0097136D01*
X0029002Y0097183D01*
X0028938Y0097234D01*
X0028876Y0097288D01*
X0028818Y0097344D01*
X0028762Y0097404D01*
X0028709Y0097466D01*
X0028659Y0097530D01*
X0028613Y0097597D01*
X0028569Y0097666D01*
X0028530Y0097737D01*
X0028493Y0097810D01*
X0028460Y0097884D01*
X0028431Y0097961D01*
X0028406Y0098038D01*
X0028384Y0098117D01*
X0028367Y0098196D01*
X0028353Y0098276D01*
X0028343Y0098357D01*
X0028337Y0098439D01*
X0028335Y0098520D01*
X0028335Y0113480D02*
X0028337Y0113561D01*
X0028343Y0113643D01*
X0028353Y0113724D01*
X0028367Y0113804D01*
X0028384Y0113883D01*
X0028406Y0113962D01*
X0028431Y0114039D01*
X0028460Y0114116D01*
X0028493Y0114190D01*
X0028530Y0114263D01*
X0028569Y0114334D01*
X0028613Y0114403D01*
X0028659Y0114470D01*
X0028709Y0114534D01*
X0028762Y0114596D01*
X0028818Y0114656D01*
X0028876Y0114712D01*
X0028938Y0114766D01*
X0029002Y0114817D01*
X0029068Y0114864D01*
X0029136Y0114908D01*
X0029207Y0114949D01*
X0029279Y0114986D01*
X0029354Y0115020D01*
X0029429Y0115050D01*
X0029507Y0115076D01*
X0029585Y0115099D01*
X0029664Y0115117D01*
X0029744Y0115132D01*
X0029825Y0115143D01*
X0029906Y0115150D01*
X0029988Y0115153D01*
X0030069Y0115152D01*
X0030150Y0115147D01*
X0030231Y0115138D01*
X0030312Y0115125D01*
X0030392Y0115108D01*
X0030470Y0115088D01*
X0030548Y0115063D01*
X0030625Y0115035D01*
X0030700Y0115003D01*
X0030773Y0114968D01*
X0030844Y0114929D01*
X0030914Y0114886D01*
X0030981Y0114841D01*
X0031047Y0114792D01*
X0031109Y0114740D01*
X0031169Y0114684D01*
X0031226Y0114626D01*
X0031281Y0114566D01*
X0031332Y0114502D01*
X0031380Y0114437D01*
X0031425Y0114369D01*
X0031467Y0114299D01*
X0031505Y0114227D01*
X0031540Y0114153D01*
X0031571Y0114078D01*
X0031598Y0114001D01*
X0031621Y0113923D01*
X0031641Y0113844D01*
X0031657Y0113764D01*
X0031669Y0113683D01*
X0031677Y0113602D01*
X0031681Y0113521D01*
X0031681Y0113439D01*
X0031677Y0113358D01*
X0031669Y0113277D01*
X0031657Y0113196D01*
X0031641Y0113116D01*
X0031621Y0113037D01*
X0031598Y0112959D01*
X0031571Y0112882D01*
X0031540Y0112807D01*
X0031505Y0112733D01*
X0031467Y0112661D01*
X0031425Y0112591D01*
X0031380Y0112523D01*
X0031332Y0112458D01*
X0031281Y0112394D01*
X0031226Y0112334D01*
X0031169Y0112276D01*
X0031109Y0112220D01*
X0031047Y0112168D01*
X0030981Y0112119D01*
X0030914Y0112074D01*
X0030845Y0112031D01*
X0030773Y0111992D01*
X0030700Y0111957D01*
X0030625Y0111925D01*
X0030548Y0111897D01*
X0030470Y0111872D01*
X0030392Y0111852D01*
X0030312Y0111835D01*
X0030231Y0111822D01*
X0030150Y0111813D01*
X0030069Y0111808D01*
X0029988Y0111807D01*
X0029906Y0111810D01*
X0029825Y0111817D01*
X0029744Y0111828D01*
X0029664Y0111843D01*
X0029585Y0111861D01*
X0029507Y0111884D01*
X0029429Y0111910D01*
X0029354Y0111940D01*
X0029279Y0111974D01*
X0029207Y0112011D01*
X0029136Y0112052D01*
X0029068Y0112096D01*
X0029002Y0112143D01*
X0028938Y0112194D01*
X0028876Y0112248D01*
X0028818Y0112304D01*
X0028762Y0112364D01*
X0028709Y0112426D01*
X0028659Y0112490D01*
X0028613Y0112557D01*
X0028569Y0112626D01*
X0028530Y0112697D01*
X0028493Y0112770D01*
X0028460Y0112844D01*
X0028431Y0112921D01*
X0028406Y0112998D01*
X0028384Y0113077D01*
X0028367Y0113156D01*
X0028353Y0113236D01*
X0028343Y0113317D01*
X0028337Y0113399D01*
X0028335Y0113480D01*
D11*
X0050846Y0103000D02*
X0050846Y0099000D01*
X0046503Y0106000D02*
X0046506Y0106242D01*
X0046515Y0106483D01*
X0046530Y0106724D01*
X0046550Y0106965D01*
X0046577Y0107205D01*
X0046610Y0107444D01*
X0046648Y0107683D01*
X0046692Y0107920D01*
X0046742Y0108157D01*
X0046798Y0108392D01*
X0046860Y0108625D01*
X0046927Y0108857D01*
X0047000Y0109088D01*
X0047078Y0109316D01*
X0047163Y0109542D01*
X0047252Y0109767D01*
X0047347Y0109989D01*
X0047448Y0110208D01*
X0047554Y0110426D01*
X0047665Y0110640D01*
X0047782Y0110852D01*
X0047903Y0111060D01*
X0048030Y0111266D01*
X0048162Y0111468D01*
X0048299Y0111668D01*
X0048440Y0111863D01*
X0048586Y0112056D01*
X0048737Y0112244D01*
X0048893Y0112429D01*
X0049053Y0112610D01*
X0049217Y0112787D01*
X0049386Y0112960D01*
X0049559Y0113129D01*
X0049736Y0113293D01*
X0049917Y0113453D01*
X0050102Y0113609D01*
X0050290Y0113760D01*
X0050483Y0113906D01*
X0050678Y0114047D01*
X0050878Y0114184D01*
X0051080Y0114316D01*
X0051286Y0114443D01*
X0051494Y0114564D01*
X0051706Y0114681D01*
X0051920Y0114792D01*
X0052138Y0114898D01*
X0052357Y0114999D01*
X0052579Y0115094D01*
X0052804Y0115183D01*
X0053030Y0115268D01*
X0053258Y0115346D01*
X0053489Y0115419D01*
X0053721Y0115486D01*
X0053954Y0115548D01*
X0054189Y0115604D01*
X0054426Y0115654D01*
X0054663Y0115698D01*
X0054902Y0115736D01*
X0055141Y0115769D01*
X0055381Y0115796D01*
X0055622Y0115816D01*
X0055863Y0115831D01*
X0056104Y0115840D01*
X0056346Y0115843D01*
X0056588Y0115840D01*
X0056829Y0115831D01*
X0057070Y0115816D01*
X0057311Y0115796D01*
X0057551Y0115769D01*
X0057790Y0115736D01*
X0058029Y0115698D01*
X0058266Y0115654D01*
X0058503Y0115604D01*
X0058738Y0115548D01*
X0058971Y0115486D01*
X0059203Y0115419D01*
X0059434Y0115346D01*
X0059662Y0115268D01*
X0059888Y0115183D01*
X0060113Y0115094D01*
X0060335Y0114999D01*
X0060554Y0114898D01*
X0060772Y0114792D01*
X0060986Y0114681D01*
X0061198Y0114564D01*
X0061406Y0114443D01*
X0061612Y0114316D01*
X0061814Y0114184D01*
X0062014Y0114047D01*
X0062209Y0113906D01*
X0062402Y0113760D01*
X0062590Y0113609D01*
X0062775Y0113453D01*
X0062956Y0113293D01*
X0063133Y0113129D01*
X0063306Y0112960D01*
X0063475Y0112787D01*
X0063639Y0112610D01*
X0063799Y0112429D01*
X0063955Y0112244D01*
X0064106Y0112056D01*
X0064252Y0111863D01*
X0064393Y0111668D01*
X0064530Y0111468D01*
X0064662Y0111266D01*
X0064789Y0111060D01*
X0064910Y0110852D01*
X0065027Y0110640D01*
X0065138Y0110426D01*
X0065244Y0110208D01*
X0065345Y0109989D01*
X0065440Y0109767D01*
X0065529Y0109542D01*
X0065614Y0109316D01*
X0065692Y0109088D01*
X0065765Y0108857D01*
X0065832Y0108625D01*
X0065894Y0108392D01*
X0065950Y0108157D01*
X0066000Y0107920D01*
X0066044Y0107683D01*
X0066082Y0107444D01*
X0066115Y0107205D01*
X0066142Y0106965D01*
X0066162Y0106724D01*
X0066177Y0106483D01*
X0066186Y0106242D01*
X0066189Y0106000D01*
X0066186Y0105758D01*
X0066177Y0105517D01*
X0066162Y0105276D01*
X0066142Y0105035D01*
X0066115Y0104795D01*
X0066082Y0104556D01*
X0066044Y0104317D01*
X0066000Y0104080D01*
X0065950Y0103843D01*
X0065894Y0103608D01*
X0065832Y0103375D01*
X0065765Y0103143D01*
X0065692Y0102912D01*
X0065614Y0102684D01*
X0065529Y0102458D01*
X0065440Y0102233D01*
X0065345Y0102011D01*
X0065244Y0101792D01*
X0065138Y0101574D01*
X0065027Y0101360D01*
X0064910Y0101148D01*
X0064789Y0100940D01*
X0064662Y0100734D01*
X0064530Y0100532D01*
X0064393Y0100332D01*
X0064252Y0100137D01*
X0064106Y0099944D01*
X0063955Y0099756D01*
X0063799Y0099571D01*
X0063639Y0099390D01*
X0063475Y0099213D01*
X0063306Y0099040D01*
X0063133Y0098871D01*
X0062956Y0098707D01*
X0062775Y0098547D01*
X0062590Y0098391D01*
X0062402Y0098240D01*
X0062209Y0098094D01*
X0062014Y0097953D01*
X0061814Y0097816D01*
X0061612Y0097684D01*
X0061406Y0097557D01*
X0061198Y0097436D01*
X0060986Y0097319D01*
X0060772Y0097208D01*
X0060554Y0097102D01*
X0060335Y0097001D01*
X0060113Y0096906D01*
X0059888Y0096817D01*
X0059662Y0096732D01*
X0059434Y0096654D01*
X0059203Y0096581D01*
X0058971Y0096514D01*
X0058738Y0096452D01*
X0058503Y0096396D01*
X0058266Y0096346D01*
X0058029Y0096302D01*
X0057790Y0096264D01*
X0057551Y0096231D01*
X0057311Y0096204D01*
X0057070Y0096184D01*
X0056829Y0096169D01*
X0056588Y0096160D01*
X0056346Y0096157D01*
X0056104Y0096160D01*
X0055863Y0096169D01*
X0055622Y0096184D01*
X0055381Y0096204D01*
X0055141Y0096231D01*
X0054902Y0096264D01*
X0054663Y0096302D01*
X0054426Y0096346D01*
X0054189Y0096396D01*
X0053954Y0096452D01*
X0053721Y0096514D01*
X0053489Y0096581D01*
X0053258Y0096654D01*
X0053030Y0096732D01*
X0052804Y0096817D01*
X0052579Y0096906D01*
X0052357Y0097001D01*
X0052138Y0097102D01*
X0051920Y0097208D01*
X0051706Y0097319D01*
X0051494Y0097436D01*
X0051286Y0097557D01*
X0051080Y0097684D01*
X0050878Y0097816D01*
X0050678Y0097953D01*
X0050483Y0098094D01*
X0050290Y0098240D01*
X0050102Y0098391D01*
X0049917Y0098547D01*
X0049736Y0098707D01*
X0049559Y0098871D01*
X0049386Y0099040D01*
X0049217Y0099213D01*
X0049053Y0099390D01*
X0048893Y0099571D01*
X0048737Y0099756D01*
X0048586Y0099944D01*
X0048440Y0100137D01*
X0048299Y0100332D01*
X0048162Y0100532D01*
X0048030Y0100734D01*
X0047903Y0100940D01*
X0047782Y0101148D01*
X0047665Y0101360D01*
X0047554Y0101574D01*
X0047448Y0101792D01*
X0047347Y0102011D01*
X0047252Y0102233D01*
X0047163Y0102458D01*
X0047078Y0102684D01*
X0047000Y0102912D01*
X0046927Y0103143D01*
X0046860Y0103375D01*
X0046798Y0103608D01*
X0046742Y0103843D01*
X0046692Y0104080D01*
X0046648Y0104317D01*
X0046610Y0104556D01*
X0046577Y0104795D01*
X0046550Y0105035D01*
X0046530Y0105276D01*
X0046515Y0105517D01*
X0046506Y0105758D01*
X0046503Y0106000D01*
X0081346Y0086000D02*
X0081346Y0126000D01*
X0083846Y0126000D01*
X0083846Y0086000D01*
X0081346Y0086000D01*
X0083846Y0086000D02*
X0098846Y0086000D01*
X0098846Y0126000D01*
X0083846Y0126000D01*
X0121503Y0101000D02*
X0121506Y0101242D01*
X0121515Y0101483D01*
X0121530Y0101724D01*
X0121550Y0101965D01*
X0121577Y0102205D01*
X0121610Y0102444D01*
X0121648Y0102683D01*
X0121692Y0102920D01*
X0121742Y0103157D01*
X0121798Y0103392D01*
X0121860Y0103625D01*
X0121927Y0103857D01*
X0122000Y0104088D01*
X0122078Y0104316D01*
X0122163Y0104542D01*
X0122252Y0104767D01*
X0122347Y0104989D01*
X0122448Y0105208D01*
X0122554Y0105426D01*
X0122665Y0105640D01*
X0122782Y0105852D01*
X0122903Y0106060D01*
X0123030Y0106266D01*
X0123162Y0106468D01*
X0123299Y0106668D01*
X0123440Y0106863D01*
X0123586Y0107056D01*
X0123737Y0107244D01*
X0123893Y0107429D01*
X0124053Y0107610D01*
X0124217Y0107787D01*
X0124386Y0107960D01*
X0124559Y0108129D01*
X0124736Y0108293D01*
X0124917Y0108453D01*
X0125102Y0108609D01*
X0125290Y0108760D01*
X0125483Y0108906D01*
X0125678Y0109047D01*
X0125878Y0109184D01*
X0126080Y0109316D01*
X0126286Y0109443D01*
X0126494Y0109564D01*
X0126706Y0109681D01*
X0126920Y0109792D01*
X0127138Y0109898D01*
X0127357Y0109999D01*
X0127579Y0110094D01*
X0127804Y0110183D01*
X0128030Y0110268D01*
X0128258Y0110346D01*
X0128489Y0110419D01*
X0128721Y0110486D01*
X0128954Y0110548D01*
X0129189Y0110604D01*
X0129426Y0110654D01*
X0129663Y0110698D01*
X0129902Y0110736D01*
X0130141Y0110769D01*
X0130381Y0110796D01*
X0130622Y0110816D01*
X0130863Y0110831D01*
X0131104Y0110840D01*
X0131346Y0110843D01*
X0131588Y0110840D01*
X0131829Y0110831D01*
X0132070Y0110816D01*
X0132311Y0110796D01*
X0132551Y0110769D01*
X0132790Y0110736D01*
X0133029Y0110698D01*
X0133266Y0110654D01*
X0133503Y0110604D01*
X0133738Y0110548D01*
X0133971Y0110486D01*
X0134203Y0110419D01*
X0134434Y0110346D01*
X0134662Y0110268D01*
X0134888Y0110183D01*
X0135113Y0110094D01*
X0135335Y0109999D01*
X0135554Y0109898D01*
X0135772Y0109792D01*
X0135986Y0109681D01*
X0136198Y0109564D01*
X0136406Y0109443D01*
X0136612Y0109316D01*
X0136814Y0109184D01*
X0137014Y0109047D01*
X0137209Y0108906D01*
X0137402Y0108760D01*
X0137590Y0108609D01*
X0137775Y0108453D01*
X0137956Y0108293D01*
X0138133Y0108129D01*
X0138306Y0107960D01*
X0138475Y0107787D01*
X0138639Y0107610D01*
X0138799Y0107429D01*
X0138955Y0107244D01*
X0139106Y0107056D01*
X0139252Y0106863D01*
X0139393Y0106668D01*
X0139530Y0106468D01*
X0139662Y0106266D01*
X0139789Y0106060D01*
X0139910Y0105852D01*
X0140027Y0105640D01*
X0140138Y0105426D01*
X0140244Y0105208D01*
X0140345Y0104989D01*
X0140440Y0104767D01*
X0140529Y0104542D01*
X0140614Y0104316D01*
X0140692Y0104088D01*
X0140765Y0103857D01*
X0140832Y0103625D01*
X0140894Y0103392D01*
X0140950Y0103157D01*
X0141000Y0102920D01*
X0141044Y0102683D01*
X0141082Y0102444D01*
X0141115Y0102205D01*
X0141142Y0101965D01*
X0141162Y0101724D01*
X0141177Y0101483D01*
X0141186Y0101242D01*
X0141189Y0101000D01*
X0141186Y0100758D01*
X0141177Y0100517D01*
X0141162Y0100276D01*
X0141142Y0100035D01*
X0141115Y0099795D01*
X0141082Y0099556D01*
X0141044Y0099317D01*
X0141000Y0099080D01*
X0140950Y0098843D01*
X0140894Y0098608D01*
X0140832Y0098375D01*
X0140765Y0098143D01*
X0140692Y0097912D01*
X0140614Y0097684D01*
X0140529Y0097458D01*
X0140440Y0097233D01*
X0140345Y0097011D01*
X0140244Y0096792D01*
X0140138Y0096574D01*
X0140027Y0096360D01*
X0139910Y0096148D01*
X0139789Y0095940D01*
X0139662Y0095734D01*
X0139530Y0095532D01*
X0139393Y0095332D01*
X0139252Y0095137D01*
X0139106Y0094944D01*
X0138955Y0094756D01*
X0138799Y0094571D01*
X0138639Y0094390D01*
X0138475Y0094213D01*
X0138306Y0094040D01*
X0138133Y0093871D01*
X0137956Y0093707D01*
X0137775Y0093547D01*
X0137590Y0093391D01*
X0137402Y0093240D01*
X0137209Y0093094D01*
X0137014Y0092953D01*
X0136814Y0092816D01*
X0136612Y0092684D01*
X0136406Y0092557D01*
X0136198Y0092436D01*
X0135986Y0092319D01*
X0135772Y0092208D01*
X0135554Y0092102D01*
X0135335Y0092001D01*
X0135113Y0091906D01*
X0134888Y0091817D01*
X0134662Y0091732D01*
X0134434Y0091654D01*
X0134203Y0091581D01*
X0133971Y0091514D01*
X0133738Y0091452D01*
X0133503Y0091396D01*
X0133266Y0091346D01*
X0133029Y0091302D01*
X0132790Y0091264D01*
X0132551Y0091231D01*
X0132311Y0091204D01*
X0132070Y0091184D01*
X0131829Y0091169D01*
X0131588Y0091160D01*
X0131346Y0091157D01*
X0131104Y0091160D01*
X0130863Y0091169D01*
X0130622Y0091184D01*
X0130381Y0091204D01*
X0130141Y0091231D01*
X0129902Y0091264D01*
X0129663Y0091302D01*
X0129426Y0091346D01*
X0129189Y0091396D01*
X0128954Y0091452D01*
X0128721Y0091514D01*
X0128489Y0091581D01*
X0128258Y0091654D01*
X0128030Y0091732D01*
X0127804Y0091817D01*
X0127579Y0091906D01*
X0127357Y0092001D01*
X0127138Y0092102D01*
X0126920Y0092208D01*
X0126706Y0092319D01*
X0126494Y0092436D01*
X0126286Y0092557D01*
X0126080Y0092684D01*
X0125878Y0092816D01*
X0125678Y0092953D01*
X0125483Y0093094D01*
X0125290Y0093240D01*
X0125102Y0093391D01*
X0124917Y0093547D01*
X0124736Y0093707D01*
X0124559Y0093871D01*
X0124386Y0094040D01*
X0124217Y0094213D01*
X0124053Y0094390D01*
X0123893Y0094571D01*
X0123737Y0094756D01*
X0123586Y0094944D01*
X0123440Y0095137D01*
X0123299Y0095332D01*
X0123162Y0095532D01*
X0123030Y0095734D01*
X0122903Y0095940D01*
X0122782Y0096148D01*
X0122665Y0096360D01*
X0122554Y0096574D01*
X0122448Y0096792D01*
X0122347Y0097011D01*
X0122252Y0097233D01*
X0122163Y0097458D01*
X0122078Y0097684D01*
X0122000Y0097912D01*
X0121927Y0098143D01*
X0121860Y0098375D01*
X0121798Y0098608D01*
X0121742Y0098843D01*
X0121692Y0099080D01*
X0121648Y0099317D01*
X0121610Y0099556D01*
X0121577Y0099795D01*
X0121550Y0100035D01*
X0121530Y0100276D01*
X0121515Y0100517D01*
X0121506Y0100758D01*
X0121503Y0101000D01*
X0125846Y0098000D02*
X0125846Y0094000D01*
X0153346Y0101000D02*
X0153346Y0081000D01*
X0156346Y0081000D01*
X0156346Y0080000D01*
X0156346Y0081000D02*
X0159346Y0081000D01*
X0159346Y0101000D01*
X0156346Y0101000D01*
X0156346Y0102000D01*
X0156346Y0101000D02*
X0153346Y0101000D01*
X0168346Y0101000D02*
X0171346Y0101000D01*
X0171346Y0102000D01*
X0171346Y0101000D02*
X0174346Y0101000D01*
X0174346Y0081000D01*
X0171346Y0081000D01*
X0171346Y0080000D01*
X0171346Y0081000D02*
X0168346Y0081000D01*
X0168346Y0101000D01*
X0183346Y0101000D02*
X0186346Y0101000D01*
X0186346Y0102000D01*
X0186346Y0101000D02*
X0189346Y0101000D01*
X0189346Y0081000D01*
X0186346Y0081000D01*
X0186346Y0080000D01*
X0186346Y0081000D02*
X0183346Y0081000D01*
X0183346Y0101000D01*
X0199846Y0099246D02*
X0199846Y0082754D01*
X0216346Y0088500D02*
X0216403Y0088775D01*
X0216454Y0089052D01*
X0216498Y0089330D01*
X0216536Y0089608D01*
X0216566Y0089888D01*
X0216590Y0090168D01*
X0216607Y0090449D01*
X0216617Y0090730D01*
X0216620Y0091011D01*
X0216616Y0091292D01*
X0216606Y0091573D01*
X0216588Y0091854D01*
X0216564Y0092134D01*
X0216533Y0092413D01*
X0216495Y0092692D01*
X0216450Y0092970D01*
X0216399Y0093246D01*
X0216341Y0093521D01*
X0216276Y0093795D01*
X0216204Y0094067D01*
X0216126Y0094337D01*
X0216042Y0094605D01*
X0215950Y0094871D01*
X0215853Y0095135D01*
X0215749Y0095396D01*
X0215638Y0095655D01*
X0215521Y0095911D01*
X0215398Y0096164D01*
X0215269Y0096413D01*
X0215134Y0096660D01*
X0214993Y0096903D01*
X0214846Y0097143D01*
X0214693Y0097379D01*
X0214535Y0097611D01*
X0214371Y0097840D01*
X0214201Y0098064D01*
X0214026Y0098284D01*
X0213846Y0098500D01*
X0216346Y0088500D02*
X0216281Y0088225D01*
X0216210Y0087952D01*
X0216132Y0087681D01*
X0216047Y0087411D01*
X0215956Y0087144D01*
X0215858Y0086879D01*
X0215754Y0086617D01*
X0215643Y0086357D01*
X0215527Y0086100D01*
X0215403Y0085846D01*
X0215274Y0085595D01*
X0215139Y0085348D01*
X0214997Y0085103D01*
X0214850Y0084863D01*
X0214696Y0084626D01*
X0214537Y0084392D01*
X0214373Y0084163D01*
X0214202Y0083938D01*
X0214027Y0083717D01*
X0213846Y0083500D01*
X0216346Y0088500D02*
X0216403Y0088774D01*
X0216454Y0089049D01*
X0216498Y0089326D01*
X0216535Y0089603D01*
X0216566Y0089882D01*
X0216589Y0090161D01*
X0216606Y0090440D01*
X0216617Y0090720D01*
X0216620Y0091000D01*
X0216617Y0091280D01*
X0216606Y0091560D01*
X0216589Y0091839D01*
X0216566Y0092118D01*
X0216535Y0092397D01*
X0216498Y0092674D01*
X0216454Y0092951D01*
X0216403Y0093226D01*
X0216346Y0093500D01*
X0245008Y0081315D02*
X0317843Y0081315D01*
X0317843Y0120685D01*
X0245008Y0120685D01*
X0245008Y0081315D01*
X0203748Y0068205D02*
X0203748Y0043795D01*
X0128945Y0043795D01*
X0128945Y0068205D01*
X0203748Y0068205D01*
X0130456Y0065449D02*
X0130458Y0065519D01*
X0130464Y0065590D01*
X0130474Y0065659D01*
X0130488Y0065728D01*
X0130506Y0065797D01*
X0130527Y0065864D01*
X0130552Y0065930D01*
X0130581Y0065994D01*
X0130614Y0066056D01*
X0130650Y0066117D01*
X0130690Y0066175D01*
X0130732Y0066231D01*
X0130778Y0066285D01*
X0130827Y0066336D01*
X0130878Y0066384D01*
X0130933Y0066429D01*
X0130989Y0066471D01*
X0131048Y0066509D01*
X0131109Y0066544D01*
X0131172Y0066576D01*
X0131237Y0066604D01*
X0131303Y0066629D01*
X0131370Y0066649D01*
X0131439Y0066666D01*
X0131508Y0066679D01*
X0131578Y0066688D01*
X0131648Y0066693D01*
X0131719Y0066694D01*
X0131789Y0066691D01*
X0131859Y0066684D01*
X0131929Y0066673D01*
X0131998Y0066658D01*
X0132066Y0066639D01*
X0132132Y0066617D01*
X0132198Y0066591D01*
X0132262Y0066561D01*
X0132324Y0066527D01*
X0132384Y0066490D01*
X0132441Y0066450D01*
X0132497Y0066406D01*
X0132550Y0066360D01*
X0132600Y0066310D01*
X0132647Y0066258D01*
X0132691Y0066203D01*
X0132732Y0066146D01*
X0132770Y0066087D01*
X0132805Y0066025D01*
X0132835Y0065962D01*
X0132863Y0065897D01*
X0132886Y0065830D01*
X0132906Y0065763D01*
X0132922Y0065694D01*
X0132934Y0065625D01*
X0132942Y0065555D01*
X0132946Y0065484D01*
X0132946Y0065414D01*
X0132942Y0065343D01*
X0132934Y0065273D01*
X0132922Y0065204D01*
X0132906Y0065135D01*
X0132886Y0065068D01*
X0132863Y0065001D01*
X0132835Y0064936D01*
X0132805Y0064873D01*
X0132770Y0064811D01*
X0132732Y0064752D01*
X0132691Y0064695D01*
X0132647Y0064640D01*
X0132600Y0064588D01*
X0132550Y0064538D01*
X0132497Y0064492D01*
X0132441Y0064448D01*
X0132384Y0064408D01*
X0132323Y0064371D01*
X0132262Y0064337D01*
X0132198Y0064307D01*
X0132132Y0064281D01*
X0132066Y0064259D01*
X0131998Y0064240D01*
X0131929Y0064225D01*
X0131859Y0064214D01*
X0131789Y0064207D01*
X0131719Y0064204D01*
X0131648Y0064205D01*
X0131578Y0064210D01*
X0131508Y0064219D01*
X0131439Y0064232D01*
X0131370Y0064249D01*
X0131303Y0064269D01*
X0131237Y0064294D01*
X0131172Y0064322D01*
X0131109Y0064354D01*
X0131048Y0064389D01*
X0130989Y0064427D01*
X0130933Y0064469D01*
X0130878Y0064514D01*
X0130827Y0064562D01*
X0130778Y0064613D01*
X0130732Y0064667D01*
X0130690Y0064723D01*
X0130650Y0064781D01*
X0130614Y0064842D01*
X0130581Y0064904D01*
X0130552Y0064968D01*
X0130527Y0065034D01*
X0130506Y0065101D01*
X0130488Y0065170D01*
X0130474Y0065239D01*
X0130464Y0065308D01*
X0130458Y0065379D01*
X0130456Y0065449D01*
D12*
X0131346Y0106000D03*
X0056346Y0111000D03*
D13*
X0056346Y0101000D03*
X0131346Y0096000D03*
D14*
X0091346Y0096000D03*
X0086346Y0031000D03*
X0076346Y0031000D03*
X0221346Y0026000D03*
D15*
X0221346Y0036000D03*
X0221346Y0046000D03*
X0186346Y0076000D03*
X0171346Y0076000D03*
X0156346Y0076000D03*
X0206346Y0081000D03*
X0206346Y0091000D03*
X0206346Y0101000D03*
X0186346Y0106000D03*
X0171346Y0106000D03*
X0156346Y0106000D03*
X0091346Y0106000D03*
X0091346Y0116000D03*
X0086346Y0061000D03*
X0076346Y0061000D03*
X0076346Y0051000D03*
X0086346Y0051000D03*
X0086346Y0041000D03*
X0076346Y0041000D03*
X0336346Y0091000D03*
X0336346Y0101000D03*
X0336346Y0111000D03*
D16*
X0231346Y0051000D02*
X0231346Y0046000D01*
X0226346Y0046000D01*
X0226346Y0026000D01*
X0231346Y0026000D01*
X0231346Y0021000D01*
X0209346Y0021000D01*
X0209346Y0051000D01*
X0231346Y0051000D01*
X0231346Y0046000D02*
X0231346Y0026000D01*
D17*
X0216711Y0094239D02*
X0216023Y0094027D01*
X0216023Y0094028D02*
X0215947Y0094263D01*
X0215864Y0094497D01*
X0215776Y0094729D01*
X0215682Y0094958D01*
X0215582Y0095185D01*
X0215477Y0095409D01*
X0215367Y0095631D01*
X0215251Y0095850D01*
X0215129Y0096067D01*
X0215003Y0096280D01*
X0214871Y0096490D01*
X0214735Y0096697D01*
X0214593Y0096900D01*
X0214446Y0097100D01*
X0214295Y0097296D01*
X0214138Y0097488D01*
X0213977Y0097677D01*
X0213812Y0097861D01*
X0213642Y0098042D01*
X0213468Y0098218D01*
X0213289Y0098390D01*
X0213107Y0098557D01*
X0212920Y0098720D01*
X0212729Y0098879D01*
X0212535Y0099032D01*
X0212336Y0099181D01*
X0212135Y0099325D01*
X0211929Y0099464D01*
X0211721Y0099598D01*
X0211509Y0099727D01*
X0211294Y0099851D01*
X0211076Y0099969D01*
X0210856Y0100082D01*
X0210632Y0100189D01*
X0210407Y0100291D01*
X0210178Y0100388D01*
X0209948Y0100479D01*
X0209715Y0100564D01*
X0209480Y0100643D01*
X0209243Y0100717D01*
X0209005Y0100785D01*
X0208765Y0100847D01*
X0208524Y0100903D01*
X0208281Y0100954D01*
X0208037Y0100998D01*
X0207792Y0101036D01*
X0207546Y0101069D01*
X0207300Y0101095D01*
X0207053Y0101115D01*
X0206806Y0101130D01*
X0206558Y0101138D01*
X0206310Y0101140D01*
X0206062Y0101136D01*
X0205814Y0101126D01*
X0205567Y0101110D01*
X0205320Y0101088D01*
X0205074Y0101060D01*
X0204828Y0101026D01*
X0204584Y0100986D01*
X0204340Y0100940D01*
X0204098Y0100888D01*
X0203857Y0100830D01*
X0203617Y0100766D01*
X0203380Y0100696D01*
X0203143Y0100621D01*
X0202909Y0100540D01*
X0202677Y0100453D01*
X0202447Y0100360D01*
X0202219Y0100262D01*
X0201994Y0100159D01*
X0201772Y0100050D01*
X0201552Y0099935D01*
X0201335Y0099815D01*
X0201121Y0099690D01*
X0200910Y0099560D01*
X0200703Y0099424D01*
X0200498Y0099284D01*
X0200298Y0099139D01*
X0200100Y0098988D01*
X0199655Y0099553D01*
X0199655Y0099554D01*
X0199866Y0099715D01*
X0200081Y0099871D01*
X0200300Y0100021D01*
X0200522Y0100166D01*
X0200748Y0100306D01*
X0200977Y0100440D01*
X0201209Y0100568D01*
X0201445Y0100691D01*
X0201683Y0100808D01*
X0201925Y0100919D01*
X0202168Y0101024D01*
X0202415Y0101123D01*
X0202663Y0101217D01*
X0202914Y0101304D01*
X0203167Y0101384D01*
X0203422Y0101459D01*
X0203679Y0101527D01*
X0203937Y0101589D01*
X0204196Y0101645D01*
X0204457Y0101695D01*
X0204719Y0101737D01*
X0204982Y0101774D01*
X0205246Y0101804D01*
X0205511Y0101828D01*
X0205776Y0101845D01*
X0206041Y0101856D01*
X0206306Y0101860D01*
X0206572Y0101858D01*
X0206837Y0101849D01*
X0207103Y0101834D01*
X0207367Y0101812D01*
X0207631Y0101784D01*
X0207894Y0101749D01*
X0208157Y0101708D01*
X0208418Y0101660D01*
X0208678Y0101607D01*
X0208937Y0101546D01*
X0209194Y0101480D01*
X0209449Y0101407D01*
X0209703Y0101328D01*
X0209954Y0101243D01*
X0210204Y0101152D01*
X0210451Y0101054D01*
X0210695Y0100951D01*
X0210937Y0100842D01*
X0211176Y0100727D01*
X0211413Y0100606D01*
X0211646Y0100479D01*
X0211876Y0100346D01*
X0212103Y0100208D01*
X0212327Y0100065D01*
X0212546Y0099916D01*
X0212763Y0099762D01*
X0212975Y0099602D01*
X0213183Y0099438D01*
X0213387Y0099268D01*
X0213587Y0099093D01*
X0213783Y0098914D01*
X0213974Y0098730D01*
X0214161Y0098541D01*
X0214343Y0098347D01*
X0214520Y0098150D01*
X0214693Y0097948D01*
X0214860Y0097742D01*
X0215022Y0097531D01*
X0215180Y0097317D01*
X0215331Y0097099D01*
X0215478Y0096878D01*
X0215619Y0096653D01*
X0215754Y0096425D01*
X0215884Y0096193D01*
X0216008Y0095958D01*
X0216126Y0095720D01*
X0216239Y0095480D01*
X0216346Y0095237D01*
X0216446Y0094991D01*
X0216541Y0094743D01*
X0216629Y0094492D01*
X0216711Y0094240D01*
X0216640Y0094218D01*
X0216558Y0094469D01*
X0216470Y0094717D01*
X0216376Y0094964D01*
X0216276Y0095208D01*
X0216171Y0095449D01*
X0216059Y0095688D01*
X0215941Y0095924D01*
X0215818Y0096157D01*
X0215689Y0096387D01*
X0215555Y0096614D01*
X0215415Y0096838D01*
X0215269Y0097057D01*
X0215118Y0097274D01*
X0214962Y0097486D01*
X0214801Y0097695D01*
X0214635Y0097900D01*
X0214464Y0098100D01*
X0214288Y0098297D01*
X0214107Y0098489D01*
X0213922Y0098676D01*
X0213732Y0098859D01*
X0213537Y0099037D01*
X0213339Y0099211D01*
X0213136Y0099379D01*
X0212929Y0099543D01*
X0212718Y0099701D01*
X0212504Y0099854D01*
X0212285Y0100002D01*
X0212063Y0100145D01*
X0211838Y0100282D01*
X0211609Y0100413D01*
X0211378Y0100539D01*
X0211143Y0100659D01*
X0210905Y0100774D01*
X0210665Y0100882D01*
X0210422Y0100985D01*
X0210177Y0101082D01*
X0209929Y0101172D01*
X0209680Y0101257D01*
X0209428Y0101335D01*
X0209174Y0101408D01*
X0208919Y0101474D01*
X0208662Y0101533D01*
X0208404Y0101587D01*
X0208144Y0101634D01*
X0207884Y0101675D01*
X0207622Y0101709D01*
X0207360Y0101737D01*
X0207097Y0101759D01*
X0206834Y0101774D01*
X0206571Y0101783D01*
X0206307Y0101785D01*
X0206043Y0101781D01*
X0205780Y0101770D01*
X0205517Y0101753D01*
X0205254Y0101730D01*
X0204992Y0101700D01*
X0204731Y0101663D01*
X0204471Y0101621D01*
X0204211Y0101572D01*
X0203954Y0101516D01*
X0203697Y0101455D01*
X0203442Y0101387D01*
X0203189Y0101313D01*
X0202938Y0101232D01*
X0202689Y0101146D01*
X0202442Y0101054D01*
X0202197Y0100955D01*
X0201955Y0100851D01*
X0201716Y0100740D01*
X0201479Y0100624D01*
X0201245Y0100502D01*
X0201014Y0100375D01*
X0200787Y0100242D01*
X0200562Y0100103D01*
X0200342Y0099959D01*
X0200124Y0099810D01*
X0199911Y0099655D01*
X0199701Y0099495D01*
X0199748Y0099436D01*
X0199956Y0099595D01*
X0200168Y0099748D01*
X0200384Y0099897D01*
X0200603Y0100040D01*
X0200826Y0100178D01*
X0201052Y0100310D01*
X0201281Y0100437D01*
X0201513Y0100558D01*
X0201748Y0100673D01*
X0201986Y0100782D01*
X0202226Y0100886D01*
X0202469Y0100984D01*
X0202715Y0101076D01*
X0202962Y0101161D01*
X0203211Y0101241D01*
X0203463Y0101315D01*
X0203716Y0101382D01*
X0203970Y0101443D01*
X0204226Y0101498D01*
X0204484Y0101547D01*
X0204742Y0101589D01*
X0205001Y0101625D01*
X0205262Y0101655D01*
X0205522Y0101678D01*
X0205784Y0101695D01*
X0206045Y0101706D01*
X0206307Y0101710D01*
X0206569Y0101708D01*
X0206831Y0101699D01*
X0207092Y0101684D01*
X0207353Y0101663D01*
X0207614Y0101635D01*
X0207873Y0101601D01*
X0208132Y0101560D01*
X0208390Y0101513D01*
X0208646Y0101460D01*
X0208901Y0101401D01*
X0209154Y0101335D01*
X0209406Y0101263D01*
X0209656Y0101186D01*
X0209904Y0101102D01*
X0210150Y0101012D01*
X0210394Y0100916D01*
X0210635Y0100814D01*
X0210874Y0100706D01*
X0211110Y0100592D01*
X0211343Y0100473D01*
X0211573Y0100348D01*
X0211800Y0100217D01*
X0212024Y0100081D01*
X0212244Y0099940D01*
X0212461Y0099793D01*
X0212674Y0099641D01*
X0212883Y0099484D01*
X0213089Y0099321D01*
X0213290Y0099154D01*
X0213487Y0098982D01*
X0213680Y0098805D01*
X0213869Y0098623D01*
X0214053Y0098437D01*
X0214233Y0098246D01*
X0214407Y0098051D01*
X0214577Y0097852D01*
X0214742Y0097649D01*
X0214902Y0097441D01*
X0215057Y0097230D01*
X0215207Y0097016D01*
X0215351Y0096797D01*
X0215490Y0096575D01*
X0215624Y0096350D01*
X0215752Y0096122D01*
X0215874Y0095890D01*
X0215991Y0095656D01*
X0216102Y0095418D01*
X0216207Y0095179D01*
X0216306Y0094936D01*
X0216400Y0094692D01*
X0216487Y0094445D01*
X0216568Y0094196D01*
X0216496Y0094174D01*
X0216416Y0094421D01*
X0216329Y0094666D01*
X0216237Y0094909D01*
X0216138Y0095150D01*
X0216034Y0095388D01*
X0215924Y0095623D01*
X0215808Y0095856D01*
X0215686Y0096086D01*
X0215559Y0096313D01*
X0215426Y0096536D01*
X0215288Y0096757D01*
X0215145Y0096974D01*
X0214996Y0097187D01*
X0214842Y0097396D01*
X0214683Y0097602D01*
X0214520Y0097804D01*
X0214351Y0098002D01*
X0214177Y0098196D01*
X0213999Y0098385D01*
X0213816Y0098570D01*
X0213629Y0098750D01*
X0213437Y0098926D01*
X0213241Y0099097D01*
X0213041Y0099263D01*
X0212837Y0099424D01*
X0212629Y0099580D01*
X0212418Y0099731D01*
X0212202Y0099877D01*
X0211984Y0100018D01*
X0211762Y0100153D01*
X0211536Y0100283D01*
X0211308Y0100407D01*
X0211076Y0100525D01*
X0210842Y0100638D01*
X0210605Y0100745D01*
X0210365Y0100846D01*
X0210124Y0100941D01*
X0209879Y0101031D01*
X0209633Y0101114D01*
X0209385Y0101192D01*
X0209135Y0101263D01*
X0208883Y0101328D01*
X0208630Y0101387D01*
X0208375Y0101440D01*
X0208119Y0101486D01*
X0207863Y0101526D01*
X0207605Y0101560D01*
X0207346Y0101588D01*
X0207087Y0101609D01*
X0206827Y0101624D01*
X0206568Y0101633D01*
X0206308Y0101635D01*
X0206048Y0101631D01*
X0205788Y0101620D01*
X0205528Y0101604D01*
X0205269Y0101580D01*
X0205011Y0101551D01*
X0204753Y0101515D01*
X0204497Y0101473D01*
X0204241Y0101425D01*
X0203987Y0101370D01*
X0203734Y0101309D01*
X0203483Y0101242D01*
X0203234Y0101169D01*
X0202986Y0101090D01*
X0202740Y0101005D01*
X0202497Y0100914D01*
X0202255Y0100817D01*
X0202017Y0100714D01*
X0201781Y0100605D01*
X0201547Y0100491D01*
X0201316Y0100371D01*
X0201089Y0100245D01*
X0200864Y0100113D01*
X0200643Y0099977D01*
X0200426Y0099835D01*
X0200211Y0099687D01*
X0200001Y0099535D01*
X0199794Y0099377D01*
X0199840Y0099318D01*
X0200046Y0099475D01*
X0200255Y0099626D01*
X0200468Y0099773D01*
X0200684Y0099914D01*
X0200903Y0100049D01*
X0201126Y0100180D01*
X0201352Y0100305D01*
X0201581Y0100424D01*
X0201813Y0100538D01*
X0202047Y0100646D01*
X0202284Y0100748D01*
X0202524Y0100844D01*
X0202766Y0100935D01*
X0203010Y0101019D01*
X0203256Y0101098D01*
X0203503Y0101170D01*
X0203753Y0101237D01*
X0204004Y0101297D01*
X0204256Y0101351D01*
X0204510Y0101399D01*
X0204765Y0101441D01*
X0205021Y0101476D01*
X0205277Y0101506D01*
X0205534Y0101529D01*
X0205792Y0101545D01*
X0206050Y0101556D01*
X0206308Y0101560D01*
X0206566Y0101558D01*
X0206824Y0101549D01*
X0207082Y0101534D01*
X0207339Y0101513D01*
X0207596Y0101486D01*
X0207852Y0101452D01*
X0208107Y0101412D01*
X0208361Y0101366D01*
X0208614Y0101314D01*
X0208865Y0101255D01*
X0209115Y0101190D01*
X0209363Y0101120D01*
X0209610Y0101043D01*
X0209854Y0100960D01*
X0210097Y0100871D01*
X0210337Y0100777D01*
X0210575Y0100676D01*
X0210810Y0100570D01*
X0211043Y0100458D01*
X0211273Y0100340D01*
X0211500Y0100217D01*
X0211723Y0100088D01*
X0211944Y0099954D01*
X0212161Y0099815D01*
X0212375Y0099670D01*
X0212585Y0099520D01*
X0212791Y0099365D01*
X0212994Y0099205D01*
X0213193Y0099040D01*
X0213387Y0098870D01*
X0213577Y0098696D01*
X0213763Y0098516D01*
X0213945Y0098333D01*
X0214122Y0098145D01*
X0214294Y0097953D01*
X0214462Y0097756D01*
X0214625Y0097556D01*
X0214782Y0097352D01*
X0214935Y0097143D01*
X0215083Y0096932D01*
X0215225Y0096716D01*
X0215362Y0096497D01*
X0215494Y0096275D01*
X0215620Y0096050D01*
X0215741Y0095822D01*
X0215856Y0095591D01*
X0215965Y0095357D01*
X0216069Y0095121D01*
X0216167Y0094882D01*
X0216259Y0094640D01*
X0216345Y0094397D01*
X0216425Y0094152D01*
X0216353Y0094129D01*
X0216274Y0094373D01*
X0216188Y0094615D01*
X0216097Y0094854D01*
X0216000Y0095092D01*
X0215897Y0095326D01*
X0215788Y0095558D01*
X0215674Y0095788D01*
X0215554Y0096015D01*
X0215429Y0096238D01*
X0215298Y0096459D01*
X0215162Y0096676D01*
X0215021Y0096890D01*
X0214874Y0097100D01*
X0214722Y0097307D01*
X0214566Y0097509D01*
X0214404Y0097708D01*
X0214238Y0097903D01*
X0214067Y0098094D01*
X0213891Y0098281D01*
X0213711Y0098463D01*
X0213526Y0098641D01*
X0213337Y0098814D01*
X0213144Y0098983D01*
X0212947Y0099147D01*
X0212746Y0099305D01*
X0212541Y0099459D01*
X0212332Y0099608D01*
X0212120Y0099752D01*
X0211904Y0099891D01*
X0211685Y0100024D01*
X0211463Y0100152D01*
X0211238Y0100274D01*
X0211009Y0100391D01*
X0210778Y0100502D01*
X0210545Y0100608D01*
X0210309Y0100707D01*
X0210070Y0100801D01*
X0209830Y0100889D01*
X0209587Y0100972D01*
X0209342Y0101048D01*
X0209096Y0101118D01*
X0208847Y0101182D01*
X0208598Y0101240D01*
X0208347Y0101292D01*
X0208094Y0101338D01*
X0207841Y0101378D01*
X0207587Y0101411D01*
X0207332Y0101439D01*
X0207077Y0101460D01*
X0206821Y0101474D01*
X0206565Y0101483D01*
X0206308Y0101485D01*
X0206052Y0101481D01*
X0205796Y0101471D01*
X0205540Y0101454D01*
X0205285Y0101431D01*
X0205030Y0101402D01*
X0204776Y0101367D01*
X0204523Y0101325D01*
X0204271Y0101278D01*
X0204021Y0101224D01*
X0203771Y0101164D01*
X0203524Y0101098D01*
X0203278Y0101026D01*
X0203034Y0100948D01*
X0202791Y0100864D01*
X0202551Y0100774D01*
X0202314Y0100679D01*
X0202078Y0100577D01*
X0201845Y0100470D01*
X0201615Y0100357D01*
X0201388Y0100239D01*
X0201163Y0100115D01*
X0200942Y0099985D01*
X0200724Y0099850D01*
X0200509Y0099710D01*
X0200298Y0099565D01*
X0200091Y0099415D01*
X0199887Y0099259D01*
X0199933Y0099200D01*
X0200136Y0099355D01*
X0200342Y0099504D01*
X0200551Y0099648D01*
X0200765Y0099787D01*
X0200981Y0099921D01*
X0201201Y0100050D01*
X0201423Y0100173D01*
X0201649Y0100290D01*
X0201878Y0100402D01*
X0202109Y0100509D01*
X0202343Y0100609D01*
X0202579Y0100704D01*
X0202817Y0100794D01*
X0203057Y0100877D01*
X0203300Y0100954D01*
X0203544Y0101026D01*
X0203790Y0101091D01*
X0204038Y0101151D01*
X0204286Y0101204D01*
X0204536Y0101252D01*
X0204788Y0101293D01*
X0205040Y0101328D01*
X0205292Y0101357D01*
X0205546Y0101379D01*
X0205800Y0101396D01*
X0206054Y0101406D01*
X0206309Y0101410D01*
X0206563Y0101408D01*
X0206817Y0101399D01*
X0207072Y0101385D01*
X0207325Y0101364D01*
X0207578Y0101337D01*
X0207831Y0101304D01*
X0208082Y0101264D01*
X0208332Y0101219D01*
X0208582Y0101167D01*
X0208829Y0101109D01*
X0209076Y0101046D01*
X0209321Y0100976D01*
X0209564Y0100900D01*
X0209805Y0100819D01*
X0210044Y0100731D01*
X0210280Y0100638D01*
X0210515Y0100539D01*
X0210747Y0100434D01*
X0210976Y0100324D01*
X0211203Y0100208D01*
X0211426Y0100086D01*
X0211647Y0099959D01*
X0211864Y0099827D01*
X0212078Y0099690D01*
X0212289Y0099547D01*
X0212496Y0099399D01*
X0212700Y0099246D01*
X0212899Y0099088D01*
X0213095Y0098926D01*
X0213287Y0098758D01*
X0213474Y0098586D01*
X0213658Y0098410D01*
X0213837Y0098229D01*
X0214011Y0098044D01*
X0214181Y0097854D01*
X0214346Y0097661D01*
X0214507Y0097463D01*
X0214662Y0097262D01*
X0214813Y0097056D01*
X0214958Y0096848D01*
X0215099Y0096635D01*
X0215234Y0096420D01*
X0215364Y0096201D01*
X0215488Y0095979D01*
X0215607Y0095754D01*
X0215721Y0095526D01*
X0215828Y0095296D01*
X0215931Y0095062D01*
X0216027Y0094827D01*
X0216118Y0094589D01*
X0216203Y0094349D01*
X0216281Y0094107D01*
X0216210Y0094085D01*
X0216131Y0094325D01*
X0216047Y0094564D01*
X0215957Y0094800D01*
X0215861Y0095033D01*
X0215760Y0095265D01*
X0215653Y0095494D01*
X0215540Y0095720D01*
X0215422Y0095943D01*
X0215299Y0096164D01*
X0215170Y0096381D01*
X0215036Y0096595D01*
X0214896Y0096806D01*
X0214752Y0097013D01*
X0214602Y0097217D01*
X0214448Y0097417D01*
X0214289Y0097613D01*
X0214125Y0097805D01*
X0213956Y0097993D01*
X0213783Y0098177D01*
X0213605Y0098357D01*
X0213423Y0098532D01*
X0213237Y0098703D01*
X0213046Y0098869D01*
X0212852Y0099030D01*
X0212654Y0099187D01*
X0212452Y0099339D01*
X0212246Y0099485D01*
X0212037Y0099627D01*
X0211824Y0099764D01*
X0211609Y0099895D01*
X0211390Y0100021D01*
X0211168Y0100141D01*
X0210943Y0100257D01*
X0210715Y0100366D01*
X0210485Y0100470D01*
X0210252Y0100568D01*
X0210017Y0100661D01*
X0209780Y0100748D01*
X0209540Y0100829D01*
X0209299Y0100904D01*
X0209056Y0100973D01*
X0208812Y0101037D01*
X0208566Y0101094D01*
X0208318Y0101145D01*
X0208070Y0101190D01*
X0207820Y0101229D01*
X0207569Y0101262D01*
X0207318Y0101289D01*
X0207066Y0101310D01*
X0206814Y0101324D01*
X0206562Y0101333D01*
X0206309Y0101335D01*
X0206056Y0101331D01*
X0205804Y0101321D01*
X0205552Y0101304D01*
X0205300Y0101282D01*
X0205049Y0101253D01*
X0204799Y0101219D01*
X0204550Y0101178D01*
X0204301Y0101131D01*
X0204054Y0101078D01*
X0203809Y0101019D01*
X0203564Y0100954D01*
X0203322Y0100883D01*
X0203081Y0100806D01*
X0202843Y0100723D01*
X0202606Y0100635D01*
X0202372Y0100540D01*
X0202140Y0100440D01*
X0201910Y0100335D01*
X0201683Y0100223D01*
X0201459Y0100107D01*
X0201238Y0099984D01*
X0201020Y0099857D01*
X0200805Y0099724D01*
X0200593Y0099586D01*
X0200385Y0099443D01*
X0200181Y0099295D01*
X0199980Y0099141D01*
X0200026Y0099083D01*
X0200226Y0099235D01*
X0200429Y0099382D01*
X0200635Y0099524D01*
X0200845Y0099661D01*
X0201059Y0099793D01*
X0201275Y0099919D01*
X0201495Y0100041D01*
X0201717Y0100157D01*
X0201942Y0100267D01*
X0202170Y0100372D01*
X0202401Y0100471D01*
X0202633Y0100565D01*
X0202868Y0100653D01*
X0203105Y0100735D01*
X0203344Y0100811D01*
X0203585Y0100881D01*
X0203827Y0100946D01*
X0204071Y0101005D01*
X0204316Y0101057D01*
X0204563Y0101104D01*
X0204810Y0101144D01*
X0205059Y0101179D01*
X0205308Y0101207D01*
X0205558Y0101230D01*
X0205808Y0101246D01*
X0206059Y0101256D01*
X0206309Y0101260D01*
X0206560Y0101258D01*
X0206811Y0101249D01*
X0207061Y0101235D01*
X0207311Y0101214D01*
X0207561Y0101188D01*
X0207809Y0101155D01*
X0208057Y0101116D01*
X0208304Y0101071D01*
X0208549Y0101021D01*
X0208794Y0100964D01*
X0209037Y0100901D01*
X0209278Y0100832D01*
X0209517Y0100758D01*
X0209755Y0100677D01*
X0209990Y0100591D01*
X0210224Y0100499D01*
X0210455Y0100401D01*
X0210683Y0100298D01*
X0210909Y0100189D01*
X0211133Y0100075D01*
X0211353Y0099955D01*
X0211570Y0099830D01*
X0211785Y0099700D01*
X0211996Y0099564D01*
X0212203Y0099424D01*
X0212407Y0099278D01*
X0212608Y0099127D01*
X0212805Y0098972D01*
X0212998Y0098812D01*
X0213187Y0098647D01*
X0213372Y0098477D01*
X0213552Y0098303D01*
X0213729Y0098125D01*
X0213901Y0097942D01*
X0214068Y0097756D01*
X0214231Y0097565D01*
X0214389Y0097370D01*
X0214542Y0097172D01*
X0214691Y0096969D01*
X0214834Y0096764D01*
X0214972Y0096555D01*
X0215106Y0096342D01*
X0215234Y0096126D01*
X0215356Y0095908D01*
X0215473Y0095686D01*
X0215585Y0095461D01*
X0215692Y0095234D01*
X0215792Y0095004D01*
X0215887Y0094772D01*
X0215977Y0094538D01*
X0216060Y0094301D01*
X0216138Y0094063D01*
X0216066Y0094041D01*
X0215989Y0094278D01*
X0215906Y0094512D01*
X0215817Y0094745D01*
X0215723Y0094975D01*
X0215623Y0095203D01*
X0215518Y0095429D01*
X0215407Y0095652D01*
X0215290Y0095872D01*
X0215168Y0096089D01*
X0215041Y0096303D01*
X0214909Y0096514D01*
X0214772Y0096722D01*
X0214630Y0096926D01*
X0214482Y0097127D01*
X0214330Y0097324D01*
X0214173Y0097517D01*
X0214011Y0097706D01*
X0213845Y0097892D01*
X0213675Y0098073D01*
X0213499Y0098250D01*
X0213320Y0098423D01*
X0213137Y0098591D01*
X0212949Y0098755D01*
X0212757Y0098914D01*
X0212562Y0099068D01*
X0212363Y0099218D01*
X0212160Y0099362D01*
X0211954Y0099502D01*
X0211745Y0099636D01*
X0211532Y0099766D01*
X0211316Y0099890D01*
X0211097Y0100009D01*
X0210876Y0100122D01*
X0210652Y0100230D01*
X0210425Y0100333D01*
X0210195Y0100430D01*
X0209964Y0100521D01*
X0209730Y0100606D01*
X0209494Y0100686D01*
X0209256Y0100760D01*
X0209017Y0100829D01*
X0208776Y0100891D01*
X0208533Y0100947D01*
X0208290Y0100998D01*
X0208045Y0101042D01*
X0207799Y0101081D01*
X0207552Y0101113D01*
X0207304Y0101140D01*
X0207056Y0101160D01*
X0206808Y0101175D01*
X0206559Y0101183D01*
X0206310Y0101185D01*
X0206061Y0101181D01*
X0205812Y0101171D01*
X0205564Y0101155D01*
X0205316Y0101133D01*
X0205068Y0101105D01*
X0204822Y0101070D01*
X0204576Y0101030D01*
X0204331Y0100984D01*
X0204088Y0100932D01*
X0203846Y0100873D01*
X0203605Y0100809D01*
X0203366Y0100739D01*
X0203129Y0100664D01*
X0202894Y0100582D01*
X0202661Y0100495D01*
X0202430Y0100402D01*
X0202201Y0100303D01*
X0201975Y0100199D01*
X0201751Y0100090D01*
X0201531Y0099975D01*
X0201313Y0099854D01*
X0201098Y0099729D01*
X0200886Y0099598D01*
X0200677Y0099462D01*
X0200472Y0099321D01*
X0200271Y0099175D01*
X0200073Y0099024D01*
X0199655Y0082447D02*
X0200101Y0083012D01*
X0200100Y0083012D02*
X0200297Y0082862D01*
X0200498Y0082716D01*
X0200702Y0082576D01*
X0200910Y0082440D01*
X0201121Y0082310D01*
X0201335Y0082185D01*
X0201552Y0082065D01*
X0201772Y0081950D01*
X0201994Y0081841D01*
X0202219Y0081738D01*
X0202447Y0081640D01*
X0202677Y0081547D01*
X0202909Y0081460D01*
X0203143Y0081379D01*
X0203379Y0081304D01*
X0203617Y0081234D01*
X0203857Y0081170D01*
X0204098Y0081112D01*
X0204340Y0081060D01*
X0204584Y0081014D01*
X0204828Y0080974D01*
X0205074Y0080940D01*
X0205320Y0080912D01*
X0205567Y0080890D01*
X0205814Y0080874D01*
X0206062Y0080864D01*
X0206310Y0080860D01*
X0206558Y0080862D01*
X0206805Y0080870D01*
X0207053Y0080885D01*
X0207300Y0080905D01*
X0207546Y0080931D01*
X0207792Y0080964D01*
X0208037Y0081002D01*
X0208281Y0081046D01*
X0208524Y0081097D01*
X0208765Y0081153D01*
X0209005Y0081215D01*
X0209243Y0081283D01*
X0209480Y0081356D01*
X0209715Y0081436D01*
X0209948Y0081521D01*
X0210178Y0081612D01*
X0210406Y0081708D01*
X0210632Y0081811D01*
X0210856Y0081918D01*
X0211076Y0082031D01*
X0211294Y0082149D01*
X0211509Y0082273D01*
X0211721Y0082402D01*
X0211929Y0082536D01*
X0212135Y0082675D01*
X0212336Y0082819D01*
X0212534Y0082967D01*
X0212729Y0083121D01*
X0212920Y0083279D01*
X0213106Y0083442D01*
X0213289Y0083610D01*
X0213468Y0083782D01*
X0213642Y0083958D01*
X0213812Y0084139D01*
X0213977Y0084323D01*
X0214138Y0084512D01*
X0214295Y0084704D01*
X0214446Y0084900D01*
X0214593Y0085100D01*
X0214735Y0085303D01*
X0214871Y0085510D01*
X0215003Y0085720D01*
X0215129Y0085933D01*
X0215251Y0086149D01*
X0215366Y0086369D01*
X0215477Y0086590D01*
X0215582Y0086815D01*
X0215682Y0087042D01*
X0215776Y0087271D01*
X0215864Y0087503D01*
X0215947Y0087737D01*
X0216023Y0087972D01*
X0216711Y0087760D01*
X0216629Y0087507D01*
X0216541Y0087257D01*
X0216446Y0087009D01*
X0216345Y0086763D01*
X0216239Y0086520D01*
X0216126Y0086279D01*
X0216008Y0086042D01*
X0215884Y0085807D01*
X0215754Y0085575D01*
X0215619Y0085347D01*
X0215478Y0085122D01*
X0215331Y0084900D01*
X0215179Y0084683D01*
X0215022Y0084469D01*
X0214860Y0084258D01*
X0214693Y0084052D01*
X0214520Y0083850D01*
X0214343Y0083652D01*
X0214161Y0083459D01*
X0213974Y0083270D01*
X0213783Y0083086D01*
X0213587Y0082907D01*
X0213387Y0082732D01*
X0213183Y0082562D01*
X0212975Y0082398D01*
X0212762Y0082238D01*
X0212546Y0082084D01*
X0212326Y0081935D01*
X0212103Y0081792D01*
X0211876Y0081654D01*
X0211646Y0081521D01*
X0211413Y0081394D01*
X0211176Y0081273D01*
X0210937Y0081158D01*
X0210695Y0081049D01*
X0210450Y0080945D01*
X0210203Y0080848D01*
X0209954Y0080757D01*
X0209703Y0080672D01*
X0209449Y0080593D01*
X0209194Y0080520D01*
X0208937Y0080454D01*
X0208678Y0080393D01*
X0208418Y0080339D01*
X0208157Y0080292D01*
X0207894Y0080251D01*
X0207631Y0080216D01*
X0207367Y0080188D01*
X0207102Y0080166D01*
X0206837Y0080151D01*
X0206572Y0080142D01*
X0206306Y0080140D01*
X0206041Y0080144D01*
X0205775Y0080155D01*
X0205511Y0080172D01*
X0205246Y0080196D01*
X0204982Y0080226D01*
X0204719Y0080263D01*
X0204457Y0080306D01*
X0204196Y0080355D01*
X0203937Y0080411D01*
X0203678Y0080473D01*
X0203422Y0080541D01*
X0203167Y0080616D01*
X0202914Y0080697D01*
X0202663Y0080784D01*
X0202415Y0080877D01*
X0202168Y0080976D01*
X0201924Y0081081D01*
X0201683Y0081192D01*
X0201445Y0081309D01*
X0201209Y0081432D01*
X0200977Y0081560D01*
X0200748Y0081694D01*
X0200522Y0081834D01*
X0200299Y0081979D01*
X0200081Y0082130D01*
X0199866Y0082285D01*
X0199655Y0082446D01*
X0199701Y0082505D01*
X0199911Y0082345D01*
X0200124Y0082191D01*
X0200341Y0082041D01*
X0200562Y0081897D01*
X0200787Y0081758D01*
X0201014Y0081625D01*
X0201245Y0081498D01*
X0201479Y0081376D01*
X0201716Y0081260D01*
X0201955Y0081149D01*
X0202197Y0081045D01*
X0202442Y0080946D01*
X0202689Y0080854D01*
X0202938Y0080768D01*
X0203189Y0080687D01*
X0203442Y0080613D01*
X0203697Y0080545D01*
X0203953Y0080484D01*
X0204211Y0080428D01*
X0204470Y0080379D01*
X0204731Y0080337D01*
X0204992Y0080300D01*
X0205254Y0080270D01*
X0205516Y0080247D01*
X0205780Y0080230D01*
X0206043Y0080219D01*
X0206307Y0080215D01*
X0206570Y0080217D01*
X0206834Y0080226D01*
X0207097Y0080241D01*
X0207360Y0080263D01*
X0207622Y0080291D01*
X0207884Y0080325D01*
X0208144Y0080366D01*
X0208404Y0080413D01*
X0208662Y0080467D01*
X0208919Y0080526D01*
X0209174Y0080592D01*
X0209428Y0080665D01*
X0209679Y0080743D01*
X0209929Y0080828D01*
X0210177Y0080918D01*
X0210422Y0081015D01*
X0210665Y0081118D01*
X0210905Y0081226D01*
X0211143Y0081341D01*
X0211378Y0081461D01*
X0211609Y0081587D01*
X0211838Y0081718D01*
X0212063Y0081855D01*
X0212285Y0081998D01*
X0212503Y0082145D01*
X0212718Y0082299D01*
X0212929Y0082457D01*
X0213136Y0082621D01*
X0213339Y0082789D01*
X0213537Y0082962D01*
X0213732Y0083141D01*
X0213922Y0083324D01*
X0214107Y0083511D01*
X0214288Y0083703D01*
X0214464Y0083899D01*
X0214635Y0084100D01*
X0214801Y0084305D01*
X0214962Y0084513D01*
X0215118Y0084726D01*
X0215269Y0084942D01*
X0215415Y0085162D01*
X0215555Y0085386D01*
X0215689Y0085613D01*
X0215818Y0085843D01*
X0215941Y0086076D01*
X0216059Y0086312D01*
X0216170Y0086551D01*
X0216276Y0086792D01*
X0216376Y0087036D01*
X0216470Y0087283D01*
X0216558Y0087531D01*
X0216640Y0087782D01*
X0216568Y0087804D01*
X0216487Y0087555D01*
X0216400Y0087308D01*
X0216306Y0087064D01*
X0216207Y0086821D01*
X0216102Y0086581D01*
X0215991Y0086344D01*
X0215874Y0086110D01*
X0215752Y0085878D01*
X0215624Y0085650D01*
X0215490Y0085425D01*
X0215351Y0085203D01*
X0215207Y0084984D01*
X0215057Y0084770D01*
X0214902Y0084558D01*
X0214742Y0084351D01*
X0214577Y0084148D01*
X0214407Y0083949D01*
X0214232Y0083754D01*
X0214053Y0083563D01*
X0213869Y0083377D01*
X0213680Y0083195D01*
X0213487Y0083018D01*
X0213290Y0082846D01*
X0213088Y0082679D01*
X0212883Y0082516D01*
X0212674Y0082359D01*
X0212461Y0082207D01*
X0212244Y0082060D01*
X0212023Y0081919D01*
X0211800Y0081783D01*
X0211573Y0081652D01*
X0211343Y0081527D01*
X0211110Y0081408D01*
X0210874Y0081294D01*
X0210635Y0081186D01*
X0210394Y0081084D01*
X0210150Y0080988D01*
X0209904Y0080898D01*
X0209656Y0080814D01*
X0209406Y0080736D01*
X0209154Y0080665D01*
X0208901Y0080599D01*
X0208646Y0080540D01*
X0208389Y0080487D01*
X0208132Y0080440D01*
X0207873Y0080399D01*
X0207613Y0080365D01*
X0207353Y0080337D01*
X0207092Y0080316D01*
X0206831Y0080301D01*
X0206569Y0080292D01*
X0206307Y0080290D01*
X0206045Y0080294D01*
X0205784Y0080305D01*
X0205522Y0080322D01*
X0205261Y0080345D01*
X0205001Y0080375D01*
X0204742Y0080411D01*
X0204484Y0080453D01*
X0204226Y0080502D01*
X0203970Y0080557D01*
X0203716Y0080618D01*
X0203463Y0080685D01*
X0203211Y0080759D01*
X0202962Y0080839D01*
X0202714Y0080925D01*
X0202469Y0081016D01*
X0202226Y0081114D01*
X0201986Y0081218D01*
X0201748Y0081327D01*
X0201513Y0081443D01*
X0201281Y0081564D01*
X0201051Y0081690D01*
X0200825Y0081822D01*
X0200603Y0081960D01*
X0200383Y0082103D01*
X0200168Y0082252D01*
X0199956Y0082405D01*
X0199747Y0082564D01*
X0199794Y0082623D01*
X0200001Y0082465D01*
X0200211Y0082313D01*
X0200425Y0082165D01*
X0200643Y0082023D01*
X0200864Y0081887D01*
X0201089Y0081755D01*
X0201316Y0081630D01*
X0201547Y0081509D01*
X0201780Y0081395D01*
X0202017Y0081286D01*
X0202255Y0081183D01*
X0202496Y0081086D01*
X0202740Y0080995D01*
X0202986Y0080910D01*
X0203233Y0080831D01*
X0203483Y0080758D01*
X0203734Y0080691D01*
X0203987Y0080630D01*
X0204241Y0080575D01*
X0204497Y0080527D01*
X0204753Y0080485D01*
X0205011Y0080449D01*
X0205269Y0080420D01*
X0205528Y0080396D01*
X0205788Y0080380D01*
X0206047Y0080369D01*
X0206307Y0080365D01*
X0206567Y0080367D01*
X0206827Y0080376D01*
X0207087Y0080391D01*
X0207346Y0080412D01*
X0207605Y0080440D01*
X0207862Y0080474D01*
X0208119Y0080514D01*
X0208375Y0080560D01*
X0208630Y0080613D01*
X0208883Y0080672D01*
X0209135Y0080737D01*
X0209385Y0080808D01*
X0209633Y0080886D01*
X0209879Y0080969D01*
X0210123Y0081058D01*
X0210365Y0081154D01*
X0210605Y0081255D01*
X0210842Y0081362D01*
X0211076Y0081475D01*
X0211308Y0081593D01*
X0211536Y0081717D01*
X0211761Y0081847D01*
X0211984Y0081982D01*
X0212202Y0082123D01*
X0212418Y0082269D01*
X0212629Y0082420D01*
X0212837Y0082576D01*
X0213041Y0082737D01*
X0213241Y0082903D01*
X0213437Y0083074D01*
X0213629Y0083250D01*
X0213816Y0083430D01*
X0213999Y0083615D01*
X0214177Y0083804D01*
X0214351Y0083998D01*
X0214519Y0084196D01*
X0214683Y0084398D01*
X0214842Y0084603D01*
X0214996Y0084813D01*
X0215145Y0085026D01*
X0215288Y0085243D01*
X0215426Y0085464D01*
X0215559Y0085687D01*
X0215686Y0085914D01*
X0215808Y0086144D01*
X0215923Y0086377D01*
X0216034Y0086612D01*
X0216138Y0086850D01*
X0216237Y0087091D01*
X0216329Y0087334D01*
X0216416Y0087579D01*
X0216496Y0087826D01*
X0216425Y0087848D01*
X0216345Y0087603D01*
X0216259Y0087360D01*
X0216167Y0087118D01*
X0216069Y0086879D01*
X0215965Y0086643D01*
X0215856Y0086409D01*
X0215741Y0086178D01*
X0215620Y0085950D01*
X0215494Y0085724D01*
X0215362Y0085502D01*
X0215225Y0085284D01*
X0215083Y0085068D01*
X0214935Y0084857D01*
X0214782Y0084648D01*
X0214624Y0084444D01*
X0214462Y0084244D01*
X0214294Y0084047D01*
X0214122Y0083855D01*
X0213945Y0083667D01*
X0213763Y0083483D01*
X0213577Y0083304D01*
X0213387Y0083130D01*
X0213192Y0082960D01*
X0212994Y0082795D01*
X0212791Y0082635D01*
X0212585Y0082480D01*
X0212375Y0082330D01*
X0212161Y0082185D01*
X0211944Y0082046D01*
X0211723Y0081912D01*
X0211499Y0081783D01*
X0211273Y0081660D01*
X0211043Y0081542D01*
X0210810Y0081430D01*
X0210575Y0081324D01*
X0210337Y0081223D01*
X0210097Y0081129D01*
X0209854Y0081040D01*
X0209610Y0080957D01*
X0209363Y0080880D01*
X0209115Y0080810D01*
X0208865Y0080745D01*
X0208614Y0080686D01*
X0208361Y0080634D01*
X0208107Y0080588D01*
X0207852Y0080548D01*
X0207596Y0080514D01*
X0207339Y0080487D01*
X0207082Y0080466D01*
X0206824Y0080451D01*
X0206566Y0080442D01*
X0206308Y0080440D01*
X0206050Y0080444D01*
X0205792Y0080455D01*
X0205534Y0080471D01*
X0205277Y0080494D01*
X0205020Y0080524D01*
X0204765Y0080559D01*
X0204510Y0080601D01*
X0204256Y0080649D01*
X0204004Y0080703D01*
X0203753Y0080763D01*
X0203503Y0080830D01*
X0203255Y0080902D01*
X0203010Y0080981D01*
X0202766Y0081065D01*
X0202524Y0081156D01*
X0202284Y0081252D01*
X0202047Y0081355D01*
X0201813Y0081463D01*
X0201581Y0081576D01*
X0201352Y0081696D01*
X0201126Y0081820D01*
X0200903Y0081951D01*
X0200684Y0082087D01*
X0200467Y0082228D01*
X0200255Y0082374D01*
X0200046Y0082525D01*
X0199840Y0082682D01*
X0199887Y0082741D01*
X0200091Y0082585D01*
X0200298Y0082435D01*
X0200509Y0082290D01*
X0200724Y0082150D01*
X0200942Y0082015D01*
X0201163Y0081885D01*
X0201388Y0081762D01*
X0201615Y0081643D01*
X0201845Y0081530D01*
X0202078Y0081423D01*
X0202313Y0081322D01*
X0202551Y0081226D01*
X0202791Y0081136D01*
X0203033Y0081052D01*
X0203278Y0080974D01*
X0203524Y0080902D01*
X0203771Y0080836D01*
X0204021Y0080776D01*
X0204271Y0080722D01*
X0204523Y0080675D01*
X0204776Y0080633D01*
X0205030Y0080598D01*
X0205285Y0080569D01*
X0205540Y0080546D01*
X0205796Y0080529D01*
X0206052Y0080519D01*
X0206308Y0080515D01*
X0206564Y0080517D01*
X0206821Y0080526D01*
X0207077Y0080540D01*
X0207332Y0080561D01*
X0207587Y0080589D01*
X0207841Y0080622D01*
X0208094Y0080662D01*
X0208347Y0080708D01*
X0208598Y0080760D01*
X0208847Y0080818D01*
X0209095Y0080882D01*
X0209342Y0080952D01*
X0209587Y0081028D01*
X0209829Y0081111D01*
X0210070Y0081199D01*
X0210309Y0081293D01*
X0210545Y0081392D01*
X0210778Y0081498D01*
X0211009Y0081609D01*
X0211237Y0081726D01*
X0211463Y0081848D01*
X0211685Y0081976D01*
X0211904Y0082109D01*
X0212120Y0082248D01*
X0212332Y0082392D01*
X0212541Y0082540D01*
X0212745Y0082694D01*
X0212947Y0082853D01*
X0213144Y0083017D01*
X0213337Y0083186D01*
X0213526Y0083359D01*
X0213710Y0083537D01*
X0213891Y0083719D01*
X0214066Y0083906D01*
X0214238Y0084096D01*
X0214404Y0084291D01*
X0214566Y0084490D01*
X0214722Y0084693D01*
X0214874Y0084900D01*
X0215020Y0085110D01*
X0215162Y0085324D01*
X0215298Y0085541D01*
X0215429Y0085762D01*
X0215554Y0085985D01*
X0215674Y0086212D01*
X0215788Y0086441D01*
X0215897Y0086674D01*
X0216000Y0086908D01*
X0216097Y0087146D01*
X0216188Y0087385D01*
X0216274Y0087627D01*
X0216353Y0087871D01*
X0216281Y0087893D01*
X0216202Y0087651D01*
X0216118Y0087411D01*
X0216027Y0087173D01*
X0215931Y0086937D01*
X0215828Y0086704D01*
X0215721Y0086474D01*
X0215607Y0086246D01*
X0215488Y0086021D01*
X0215364Y0085799D01*
X0215234Y0085580D01*
X0215099Y0085365D01*
X0214958Y0085152D01*
X0214813Y0084943D01*
X0214662Y0084738D01*
X0214507Y0084537D01*
X0214346Y0084339D01*
X0214181Y0084146D01*
X0214011Y0083956D01*
X0213837Y0083771D01*
X0213658Y0083590D01*
X0213474Y0083414D01*
X0213287Y0083242D01*
X0213095Y0083074D01*
X0212899Y0082912D01*
X0212700Y0082754D01*
X0212496Y0082601D01*
X0212289Y0082453D01*
X0212078Y0082310D01*
X0211864Y0082173D01*
X0211647Y0082041D01*
X0211426Y0081914D01*
X0211202Y0081792D01*
X0210976Y0081676D01*
X0210747Y0081566D01*
X0210515Y0081461D01*
X0210280Y0081362D01*
X0210043Y0081269D01*
X0209804Y0081181D01*
X0209563Y0081100D01*
X0209320Y0081024D01*
X0209076Y0080954D01*
X0208829Y0080891D01*
X0208581Y0080833D01*
X0208332Y0080781D01*
X0208082Y0080736D01*
X0207830Y0080696D01*
X0207578Y0080663D01*
X0207325Y0080636D01*
X0207071Y0080615D01*
X0206817Y0080601D01*
X0206563Y0080592D01*
X0206308Y0080590D01*
X0206054Y0080594D01*
X0205800Y0080604D01*
X0205546Y0080621D01*
X0205292Y0080643D01*
X0205039Y0080672D01*
X0204787Y0080707D01*
X0204536Y0080749D01*
X0204286Y0080796D01*
X0204037Y0080849D01*
X0203790Y0080909D01*
X0203544Y0080974D01*
X0203300Y0081046D01*
X0203057Y0081123D01*
X0202817Y0081206D01*
X0202578Y0081296D01*
X0202342Y0081391D01*
X0202109Y0081491D01*
X0201878Y0081598D01*
X0201649Y0081710D01*
X0201423Y0081827D01*
X0201201Y0081951D01*
X0200981Y0082079D01*
X0200764Y0082213D01*
X0200551Y0082352D01*
X0200342Y0082496D01*
X0200136Y0082645D01*
X0199933Y0082800D01*
X0199980Y0082859D01*
X0200180Y0082706D01*
X0200385Y0082557D01*
X0200593Y0082414D01*
X0200805Y0082276D01*
X0201020Y0082143D01*
X0201238Y0082016D01*
X0201459Y0081893D01*
X0201683Y0081777D01*
X0201910Y0081665D01*
X0202139Y0081560D01*
X0202371Y0081460D01*
X0202606Y0081366D01*
X0202842Y0081277D01*
X0203081Y0081194D01*
X0203322Y0081117D01*
X0203564Y0081046D01*
X0203808Y0080981D01*
X0204054Y0080922D01*
X0204301Y0080869D01*
X0204549Y0080822D01*
X0204799Y0080781D01*
X0205049Y0080747D01*
X0205300Y0080718D01*
X0205552Y0080696D01*
X0205804Y0080679D01*
X0206056Y0080669D01*
X0206309Y0080665D01*
X0206561Y0080667D01*
X0206814Y0080676D01*
X0207066Y0080690D01*
X0207318Y0080711D01*
X0207569Y0080738D01*
X0207820Y0080771D01*
X0208069Y0080810D01*
X0208318Y0080855D01*
X0208565Y0080906D01*
X0208811Y0080963D01*
X0209056Y0081027D01*
X0209299Y0081096D01*
X0209540Y0081171D01*
X0209780Y0081252D01*
X0210017Y0081339D01*
X0210252Y0081431D01*
X0210485Y0081530D01*
X0210715Y0081634D01*
X0210943Y0081743D01*
X0211167Y0081859D01*
X0211389Y0081979D01*
X0211608Y0082105D01*
X0211824Y0082236D01*
X0212037Y0082373D01*
X0212246Y0082515D01*
X0212452Y0082661D01*
X0212654Y0082813D01*
X0212852Y0082970D01*
X0213046Y0083131D01*
X0213237Y0083297D01*
X0213423Y0083468D01*
X0213605Y0083643D01*
X0213783Y0083823D01*
X0213956Y0084007D01*
X0214124Y0084195D01*
X0214288Y0084387D01*
X0214448Y0084583D01*
X0214602Y0084783D01*
X0214752Y0084987D01*
X0214896Y0085194D01*
X0215036Y0085405D01*
X0215170Y0085619D01*
X0215299Y0085836D01*
X0215422Y0086057D01*
X0215540Y0086280D01*
X0215653Y0086506D01*
X0215760Y0086735D01*
X0215861Y0086966D01*
X0215957Y0087200D01*
X0216047Y0087436D01*
X0216131Y0087675D01*
X0216210Y0087915D01*
X0216138Y0087937D01*
X0216060Y0087698D01*
X0215977Y0087462D01*
X0215887Y0087228D01*
X0215792Y0086995D01*
X0215692Y0086766D01*
X0215585Y0086539D01*
X0215473Y0086314D01*
X0215356Y0086092D01*
X0215234Y0085874D01*
X0215106Y0085658D01*
X0214972Y0085445D01*
X0214834Y0085236D01*
X0214691Y0085030D01*
X0214542Y0084828D01*
X0214389Y0084630D01*
X0214231Y0084435D01*
X0214068Y0084244D01*
X0213900Y0084058D01*
X0213728Y0083875D01*
X0213552Y0083697D01*
X0213371Y0083523D01*
X0213187Y0083353D01*
X0212998Y0083188D01*
X0212805Y0083028D01*
X0212608Y0082872D01*
X0212407Y0082722D01*
X0212203Y0082576D01*
X0211996Y0082436D01*
X0211784Y0082300D01*
X0211570Y0082170D01*
X0211353Y0082045D01*
X0211132Y0081925D01*
X0210909Y0081811D01*
X0210683Y0081702D01*
X0210455Y0081599D01*
X0210224Y0081501D01*
X0209990Y0081409D01*
X0209755Y0081323D01*
X0209517Y0081242D01*
X0209278Y0081168D01*
X0209036Y0081099D01*
X0208794Y0081036D01*
X0208549Y0080979D01*
X0208304Y0080929D01*
X0208057Y0080884D01*
X0207809Y0080845D01*
X0207560Y0080812D01*
X0207311Y0080785D01*
X0207061Y0080765D01*
X0206811Y0080751D01*
X0206560Y0080742D01*
X0206309Y0080740D01*
X0206058Y0080744D01*
X0205808Y0080754D01*
X0205558Y0080770D01*
X0205308Y0080793D01*
X0205059Y0080821D01*
X0204810Y0080856D01*
X0204563Y0080896D01*
X0204316Y0080943D01*
X0204071Y0080995D01*
X0203827Y0081054D01*
X0203585Y0081119D01*
X0203344Y0081189D01*
X0203105Y0081265D01*
X0202868Y0081347D01*
X0202633Y0081435D01*
X0202400Y0081529D01*
X0202170Y0081628D01*
X0201942Y0081733D01*
X0201717Y0081844D01*
X0201495Y0081959D01*
X0201275Y0082081D01*
X0201059Y0082207D01*
X0200845Y0082339D01*
X0200635Y0082476D01*
X0200429Y0082618D01*
X0200225Y0082766D01*
X0200026Y0082918D01*
X0200072Y0082977D01*
X0200270Y0082826D01*
X0200472Y0082679D01*
X0200677Y0082538D01*
X0200886Y0082402D01*
X0201097Y0082271D01*
X0201312Y0082146D01*
X0201530Y0082025D01*
X0201751Y0081910D01*
X0201975Y0081801D01*
X0202201Y0081697D01*
X0202429Y0081598D01*
X0202660Y0081505D01*
X0202894Y0081418D01*
X0203129Y0081336D01*
X0203366Y0081261D01*
X0203605Y0081191D01*
X0203846Y0081127D01*
X0204088Y0081069D01*
X0204331Y0081016D01*
X0204576Y0080970D01*
X0204821Y0080930D01*
X0205068Y0080895D01*
X0205315Y0080867D01*
X0205563Y0080845D01*
X0205812Y0080829D01*
X0206061Y0080819D01*
X0206310Y0080815D01*
X0206559Y0080817D01*
X0206807Y0080825D01*
X0207056Y0080840D01*
X0207304Y0080860D01*
X0207552Y0080887D01*
X0207798Y0080919D01*
X0208044Y0080958D01*
X0208289Y0081002D01*
X0208533Y0081053D01*
X0208776Y0081109D01*
X0209017Y0081171D01*
X0209256Y0081240D01*
X0209494Y0081314D01*
X0209730Y0081394D01*
X0209964Y0081479D01*
X0210195Y0081570D01*
X0210424Y0081667D01*
X0210651Y0081770D01*
X0210876Y0081878D01*
X0211097Y0081991D01*
X0211316Y0082110D01*
X0211532Y0082234D01*
X0211745Y0082364D01*
X0211954Y0082498D01*
X0212160Y0082638D01*
X0212363Y0082782D01*
X0212562Y0082932D01*
X0212757Y0083086D01*
X0212949Y0083245D01*
X0213136Y0083409D01*
X0213320Y0083577D01*
X0213499Y0083750D01*
X0213674Y0083927D01*
X0213845Y0084108D01*
X0214011Y0084294D01*
X0214173Y0084483D01*
X0214330Y0084676D01*
X0214482Y0084873D01*
X0214629Y0085074D01*
X0214772Y0085278D01*
X0214909Y0085486D01*
X0215041Y0085697D01*
X0215168Y0085911D01*
X0215290Y0086128D01*
X0215407Y0086348D01*
X0215518Y0086571D01*
X0215623Y0086796D01*
X0215723Y0087025D01*
X0215817Y0087255D01*
X0215906Y0087488D01*
X0215989Y0087722D01*
X0216066Y0087959D01*
D18*
X0187546Y0088685D02*
X0186412Y0086983D01*
X0185278Y0088685D01*
X0184144Y0086983D02*
X0187546Y0086983D01*
X0187546Y0085569D02*
X0187546Y0083300D01*
X0187546Y0084434D02*
X0184144Y0084434D01*
X0185278Y0083300D01*
X0173546Y0088251D02*
X0171278Y0090519D01*
X0170711Y0090519D01*
X0170144Y0089952D01*
X0170144Y0088818D01*
X0170711Y0088251D01*
X0173546Y0088251D02*
X0173546Y0090519D01*
X0172979Y0091934D02*
X0170711Y0094202D01*
X0172979Y0094202D01*
X0173546Y0093635D01*
X0173546Y0092501D01*
X0172979Y0091934D01*
X0170711Y0091934D01*
X0170144Y0092501D01*
X0170144Y0093635D01*
X0170711Y0094202D01*
X0170711Y0095617D02*
X0170144Y0096184D01*
X0170144Y0097318D01*
X0170711Y0097885D01*
X0172979Y0095617D01*
X0173546Y0096184D01*
X0173546Y0097318D01*
X0172979Y0097885D01*
X0170711Y0097885D01*
X0170711Y0095617D02*
X0172979Y0095617D01*
X0158546Y0096231D02*
X0155144Y0096231D01*
X0155144Y0094816D02*
X0155711Y0094816D01*
X0157979Y0092548D01*
X0158546Y0092548D01*
X0158546Y0091273D02*
X0158546Y0090706D01*
X0157979Y0090706D01*
X0157979Y0091273D01*
X0158546Y0091273D01*
X0158546Y0088724D02*
X0155144Y0088724D01*
X0156845Y0087023D01*
X0156845Y0089291D01*
X0155144Y0092548D02*
X0155144Y0094816D01*
X0157412Y0096231D02*
X0156278Y0097932D01*
X0157412Y0096231D02*
X0158546Y0097932D01*
D19*
X0251346Y0086000D03*
X0301346Y0086000D03*
X0292846Y0116000D03*
X0311346Y0116000D03*
X0251346Y0116000D03*
D20*
X0032075Y0111118D03*
X0032075Y0108559D03*
X0032075Y0106000D03*
X0032075Y0103441D03*
X0032075Y0100882D03*
D21*
X0033157Y0094189D02*
X0033157Y0090252D01*
X0029220Y0090252D01*
X0017409Y0090252D02*
X0013472Y0090252D01*
X0033157Y0117811D02*
X0033157Y0121748D01*
X0033086Y0121720D02*
X0029220Y0121720D01*
X0029220Y0121748D01*
X0017409Y0121748D02*
X0013472Y0121748D01*
D22*
X0021346Y0120508D03*
X0021346Y0091492D03*
D23*
X0021346Y0106000D03*
D24*
X0226346Y0108500D02*
X0226346Y0088500D01*
X0231346Y0088500D01*
X0231346Y0086000D01*
X0231346Y0088500D02*
X0236346Y0088500D01*
X0236346Y0108500D01*
X0226346Y0108500D01*
X0226346Y0113500D01*
X0231346Y0113500D01*
X0231346Y0116000D01*
X0231346Y0113500D02*
X0236346Y0113500D01*
X0236346Y0108500D01*
D25*
X0231346Y0121000D03*
X0231346Y0081000D03*
D26*
X0136031Y0061118D03*
D27*
X0136031Y0050882D03*
X0196661Y0050882D03*
X0196661Y0061118D03*
D28*
X0196543Y0061000D01*
X0191346Y0061000D01*
X0186346Y0066000D01*
X0186346Y0076000D01*
X0191346Y0081000D01*
X0206346Y0081000D01*
X0206346Y0091000D02*
X0221346Y0091000D01*
X0231346Y0081000D01*
X0246346Y0081000D01*
X0251346Y0086000D01*
X0261346Y0096000D02*
X0261346Y0061000D01*
X0211346Y0061000D01*
X0201228Y0050882D01*
X0196661Y0050882D01*
X0216346Y0041000D02*
X0221346Y0036000D01*
X0216346Y0041000D02*
X0156346Y0041000D01*
X0156346Y0076000D01*
X0166346Y0086000D02*
X0171346Y0081000D01*
X0171346Y0076000D01*
X0166346Y0086000D02*
X0141346Y0086000D01*
X0136031Y0080685D01*
X0136031Y0061118D01*
X0135913Y0051000D02*
X0136031Y0050882D01*
X0135913Y0051000D02*
X0086346Y0051000D01*
X0086346Y0041000D02*
X0156346Y0041000D01*
X0221346Y0026000D02*
X0256346Y0026000D01*
X0261346Y0031000D01*
X0261346Y0061000D01*
X0292846Y0084500D02*
X0301346Y0076000D01*
X0331346Y0076000D01*
X0336346Y0081000D01*
X0336346Y0091000D01*
X0336346Y0101000D02*
X0306346Y0101000D01*
X0301346Y0096000D01*
X0301346Y0086000D01*
X0292846Y0084500D02*
X0292846Y0116000D01*
X0311346Y0116000D02*
X0331346Y0116000D01*
X0336346Y0111000D01*
X0261346Y0096000D02*
X0256346Y0101000D01*
X0206346Y0101000D01*
X0196346Y0101000D01*
X0191346Y0096000D01*
X0131346Y0096000D01*
X0091346Y0096000D01*
X0071346Y0096000D01*
X0066346Y0101000D01*
X0056346Y0101000D01*
X0056228Y0100882D01*
X0032075Y0100882D01*
X0032075Y0111118D02*
X0056228Y0111118D01*
X0056346Y0111000D01*
X0066346Y0111000D01*
X0071346Y0116000D01*
X0091346Y0116000D01*
X0176346Y0116000D01*
X0186346Y0106000D01*
X0201346Y0121000D01*
X0231346Y0121000D01*
X0246346Y0121000D01*
X0251346Y0116000D01*
X0171346Y0106000D02*
X0156346Y0106000D01*
X0131346Y0106000D01*
X0091346Y0106000D01*
X0091346Y0096000D02*
X0091346Y0066000D01*
X0086346Y0061000D01*
M02*
